<svg width="48" height="32" viewBox="0 0 48 32" fill="none" xmlns="http://www.w3.org/2000/svg">
<rect width="48" height="32" rx="16" fill="#060811"/>
<rect x="2" y="2" width="28" height="28" rx="14" fill="#25262F"/>
<path d="M25.3205 21.4701C25.244 21.3547 25.1036 21.2992 24.969 21.3311C22.7269 21.867 20.3664 21.5669 18.3298 20.4869C16.293 19.4071 14.7201 17.6217 13.9054 15.4653C13.0909 13.3088 13.0906 10.9292 13.9049 8.77269C14.21 7.97184 14.6214 7.21578 15.1279 6.52446C15.2089 6.41272 15.212 6.26236 15.1355 6.1474C15.059 6.03243 14.9192 5.97721 14.7847 6.00878C12.6589 6.51523 10.7539 7.69534 9.35367 9.3731C7.95343 11.0507 7.13306 13.1363 7.01484 15.318C6.89664 17.5001 7.48694 19.6619 8.6976 21.4809C9.90842 23.3001 11.6747 24.6792 13.7332 25.4125C15.7917 26.1458 18.032 26.1939 20.1201 25.5498C22.2083 24.9057 24.0321 23.6039 25.3204 21.8385C25.3951 21.7272 25.3951 21.5815 25.3204 21.4702L25.3205 21.4701ZM13.7931 24.7329C11.9643 24.0465 10.3922 22.8115 9.29243 21.197C8.19277 19.5826 7.61907 17.6677 7.64993 15.7145C7.68077 13.7613 8.31483 11.8657 9.46497 10.2865C10.6152 8.70771 12.2254 7.52287 14.075 6.89473C13.0528 8.59847 12.5542 10.5652 12.6416 12.5502C12.7288 14.5351 13.398 16.4505 14.5659 18.0579C15.7337 19.6653 17.3484 20.8937 19.2094 21.5902C20.8082 22.1941 22.5344 22.3817 24.2258 22.1354C22.9529 23.5716 21.2748 24.5888 19.4124 25.0523C17.5501 25.516 15.591 25.4047 13.793 24.733L13.7931 24.7329Z" fill="white"/>
</svg>
