<svg width="48" height="32" viewBox="0 0 48 32" fill="none" xmlns="http://www.w3.org/2000/svg">
<rect x="0.5" y="0.5" width="47" height="31" rx="15.5" fill="#E1E4ED"/>
<rect x="18" y="2" width="28" height="28" rx="14" fill="white"/>
<path d="M31.9999 9.50186C32.2445 9.50186 32.4432 9.30318 32.4432 9.05859V6.44327C32.4432 6.19868 32.2445 6 31.9999 6C31.7553 6 31.5566 6.19868 31.5566 6.44327V9.05859C31.5566 9.30318 31.7553 9.50186 31.9999 9.50186Z" fill="#060811"/>
<path d="M31.9999 22.498C31.7553 22.498 31.5566 22.6967 31.5566 22.9413V25.5566C31.5566 25.8012 31.7553 25.9999 31.9999 25.9999C32.2445 25.9999 32.4432 25.8012 32.4432 25.5566V22.9413C32.4432 22.6967 32.2445 22.498 31.9999 22.498Z" fill="#060811"/>
<path d="M26.7783 11.4051C26.8652 11.492 26.9786 11.5346 27.0922 11.5346C27.2056 11.5346 27.3192 11.491 27.406 11.4051C27.579 11.2322 27.579 10.9512 27.406 10.7784L25.5548 8.92818C25.3818 8.75522 25.1008 8.75522 24.9281 8.92818C24.7551 9.10114 24.7551 9.38214 24.9281 9.55489L26.7783 11.4051Z" fill="#060811"/>
<path d="M37.2225 20.5948C37.0495 20.4218 36.7685 20.4218 36.5958 20.5948C36.4228 20.7678 36.4228 21.0488 36.5958 21.2215L38.4451 23.0708C38.5319 23.1577 38.6453 23.2002 38.7589 23.2002C38.8723 23.2002 38.9859 23.1567 39.0728 23.0708C39.2457 22.8978 39.2457 22.6168 39.0728 22.4441L37.2225 20.5948Z" fill="#060811"/>
<path d="M25.5019 15.9999C25.5019 15.7553 25.3032 15.5566 25.0586 15.5566H22.4433C22.1987 15.5566 22 15.7553 22 15.9999C22 16.2445 22.1987 16.4432 22.4433 16.4432H25.0586C25.3032 16.4432 25.5019 16.2445 25.5019 15.9999Z" fill="#060811"/>
<path d="M41.5571 15.5566H38.9418C38.6972 15.5566 38.4985 15.7553 38.4985 15.9999C38.4985 16.2445 38.6972 16.4432 38.9418 16.4432H41.5571C41.8017 16.4432 42.0004 16.2445 42.0004 15.9999C42.0004 15.7553 41.8027 15.5566 41.5571 15.5566Z" fill="#060811"/>
<path d="M26.7783 20.5948L24.9281 22.4451C24.7551 22.618 24.7551 22.899 24.9281 23.0718C25.0149 23.1587 25.1283 23.2012 25.2419 23.2012C25.3553 23.2012 25.4689 23.1577 25.5558 23.0718L27.4051 21.2225C27.578 21.0495 27.578 20.7685 27.4051 20.5958C27.2323 20.4228 26.9511 20.4219 26.7783 20.5948Z" fill="#060811"/>
<path d="M36.9089 11.5343C37.0223 11.5343 37.1359 11.4908 37.2227 11.4049L39.072 9.55563C39.245 9.38267 39.245 9.10167 39.072 8.92891C38.8991 8.75595 38.6181 8.75595 38.4453 8.92891L36.596 10.7782C36.4231 10.9512 36.4231 11.2322 36.596 11.4049C36.6819 11.4918 36.7953 11.5343 36.9089 11.5343Z" fill="#060811"/>
<path d="M31.9999 20.909C29.2933 20.909 27.0911 18.7069 27.0911 16.0001C27.0911 13.2936 29.2932 11.0913 31.9999 11.0913C34.7065 11.0913 36.9087 13.2934 36.9087 16.0001C36.9087 18.7067 34.7064 20.909 31.9999 20.909ZM31.9999 11.9777C29.7827 11.9777 27.9776 13.7818 27.9776 15.9999C27.9776 18.2181 29.7818 20.0222 31.9999 20.0222C34.218 20.0222 36.0222 18.2181 36.0222 15.9999C36.0222 13.7828 34.218 11.9777 31.9999 11.9777Z" fill="#060811"/>
<rect x="0.5" y="0.5" width="47" height="31" rx="15.5" stroke="#E1E4ED"/>
</svg>
