<svg width="117" height="31" viewBox="0 0 117 31" fill="none" xmlns="http://www.w3.org/2000/svg">
<path d="M20 4.04465H4.41255V12.514H18.4742V16.4748H4.41255V30H0V0H20V4.04465Z" fill="#070828"/>
<path d="M22 5L24.4187 1H29L26.5813 5H22Z" fill="#070828"/>
<path d="M26 8H22V30H26V8Z" fill="#070828"/>
<path d="M46.0319 9.97924C47.344 11.299 48 13.1669 48 15.583V29.9993H43.8999V16.1666C43.8999 13.1669 42.4099 11.667 39.4306 11.667C38.0641 11.667 36.8337 12.1946 35.7402 13.2506C34.6466 14.3341 34.1001 15.8758 34.1001 17.8756V30H30V8.49995H33.9361V11.7082C35.5489 9.23605 37.7633 8 40.5786 8C42.9019 8 44.7199 8.65951 46.0319 9.97924Z" fill="#070828"/>
<path d="M67.8253 0H72V29.5028H67.9923V26.3538C66.3778 28.7849 63.9981 30 60.853 30C57.8472 30 55.4533 28.9915 53.6718 26.9752C51.8904 24.9589 51 22.2373 51 18.8119C51 15.3865 51.8904 12.6656 53.6718 10.6486C55.4533 8.63158 57.8465 7.62377 60.853 7.62377C63.8865 7.62377 66.2108 8.75641 67.8253 11.0217V0ZM61.646 26.4364C63.6222 26.4364 65.167 25.7593 66.2805 24.4059C67.394 23.1076 67.9504 21.2429 67.9504 18.8119C67.9504 16.4084 67.394 14.5303 66.2805 13.1762C65.167 11.8503 63.6222 11.1874 61.646 11.1874C59.7253 11.1874 58.1947 11.8778 57.0535 13.2594C55.9123 14.6403 55.3417 16.5466 55.3417 18.9776C55.3417 21.3536 55.9123 23.1901 57.0535 24.4885C58.1947 25.7875 59.7253 26.4364 61.646 26.4364Z" fill="#070828"/>
<path d="M95.9993 20.9063H79.3278C79.5277 23.0644 80.1703 24.6896 81.2565 25.7828C82.3419 26.876 83.8139 27.4226 85.671 27.4226C88.4714 27.4226 90.2994 26.2018 91.1572 23.7596H95.4857C94.8854 26.0025 93.7212 27.7705 91.9932 29.0623C90.2644 30.3541 88.1286 31 85.5857 31C82.4141 31 79.8566 29.9496 77.9141 27.8481C75.9716 25.7466 75 22.9644 75 19.5C75 16.0356 75.9716 13.2534 77.9141 11.1519C79.8566 9.0504 82.3856 8 85.4996 8C88.7566 8 91.3286 9.09317 93.2142 11.2795C95.0714 13.4658 96 16.2625 96 19.6704V20.9063H95.9993ZM81.3637 13.1121C80.2921 14.1342 79.6283 15.6108 79.3708 17.5413H91.5854C91.3855 15.7522 90.7494 14.3118 89.6779 13.2179C88.6063 12.1247 87.2138 11.5782 85.4989 11.5782C83.8132 11.5789 82.4345 12.09 81.3637 13.1121Z" fill="#070828"/>
<path d="M115.032 9.97924C116.344 11.299 117 13.1669 117 15.583V29.9993H112.9V16.1666C112.9 13.1669 111.41 11.667 108.431 11.667C107.064 11.667 105.834 12.1946 104.74 13.2506C103.647 14.3341 103.1 15.8758 103.1 17.8756V30H99V8.49995H102.936V11.7082C104.549 9.23605 106.763 8 109.579 8C111.902 8 113.72 8.65951 115.032 9.97924Z" fill="#070828"/>
</svg>
